<?xml version="1.0" standalone="no"?>
<!DOCTYPE svg PUBLIC "-//W3C//DTD SVG 20010904//EN"
 "http://www.w3.org/TR/2001/REC-SVG-20010904/DTD/svg10.dtd">
<svg version="1.0" xmlns="http://www.w3.org/2000/svg"
 width="607.000000pt" height="607.000000pt" viewBox="0 0 607.000000 607.000000"
 preserveAspectRatio="xMidYMid meet">
<metadata>
Created by potrace 1.14, written by Peter Selinger 2001-2017
</metadata>
<g transform="translate(0.000000,607.000000) scale(0.100000,-0.100000)"
fill="#000000" stroke="none">
<path d="M2270 6051 c-14 -4 -43 -6 -65 -6 -22 0 -42 -2 -45 -5 -3 -3 -26 -16
-52 -29 -56 -28 -63 -49 -52 -148 13 -124 11 -196 -6 -198 -8 -1 -62 -5 -120
-9 -58 -3 -118 -9 -135 -12 -16 -4 -37 -6 -45 -6 -8 0 -22 -2 -30 -5 -8 -3
-29 -7 -46 -9 -40 -4 -114 -34 -114 -46 0 -5 -4 -7 -9 -3 -13 8 -61 -76 -73
-128 -5 -23 -9 -83 -10 -134 0 -132 29 -184 110 -199 36 -7 37 -12 17 -104 -2
-13 -7 -40 -10 -60 -3 -20 -7 -46 -10 -59 -2 -13 -7 -51 -10 -85 -3 -33 -8
-74 -11 -91 -2 -16 -5 -121 -5 -233 l0 -202 -44 -12 c-49 -13 -59 -31 -70
-123 -2 -22 -7 -51 -10 -65 -3 -14 -7 -65 -9 -114 -2 -78 0 -91 18 -107 11
-11 23 -19 27 -19 9 0 20 -28 25 -60 8 -62 12 -187 6 -197 -4 -6 -22 -14 -39
-18 -18 -3 -34 -10 -34 -13 -1 -4 -2 -67 -3 -141 -2 -152 -1 -154 84 -166 25
-4 52 -8 60 -10 21 -3 19 -21 -19 -243 -40 -224 -42 -357 -16 -762 11 -162 14
-240 16 -375 2 -201 23 -345 50 -345 5 0 20 -9 32 -20 19 -19 22 -32 23 -128
1 -96 5 -144 18 -207 12 -58 46 -107 107 -153 18 -13 179 -73 179 -67 0 3 11
0 24 -5 13 -5 44 -12 67 -15 24 -3 57 -8 72 -11 49 -8 305 -16 482 -15 729 4
1312 11 1343 16 20 4 58 8 84 11 26 2 58 8 72 14 15 5 26 7 26 4 0 -4 6 -2 13
3 15 12 67 27 85 24 6 -1 12 2 12 7 0 4 19 17 42 27 106 47 139 129 142 353
l2 123 31 19 c49 29 63 67 69 185 1 33 3 62 5 65 6 17 2 66 -6 72 -6 5 -6 8 1
8 8 0 12 41 13 125 1 69 3 142 5 163 4 34 12 171 23 387 6 121 6 240 0 295
-20 174 -30 247 -34 260 -6 16 -7 21 -17 107 -7 57 0 67 46 69 92 5 103 26
101 192 -1 69 -6 129 -11 134 -5 5 -21 10 -36 12 -14 1 -29 5 -32 9 -3 3 -5
36 -5 74 3 144 16 203 45 203 29 0 40 31 39 108 -1 41 -7 96 -12 121 -6 25
-13 57 -15 71 -17 103 -25 115 -86 124 -24 3 -25 6 -25 67 0 35 3 71 7 80 4 9
5 19 1 22 -3 3 -7 61 -9 129 -3 129 -8 200 -19 283 -4 28 -8 64 -10 80 -2 17
-8 48 -14 69 -5 22 -8 43 -5 47 2 4 0 10 -6 14 -18 11 8 42 41 49 18 3 38 11
46 18 19 15 43 74 43 104 0 12 5 26 10 29 6 4 8 10 5 15 -3 5 -7 42 -9 82 -5
97 -22 150 -60 189 -32 33 -91 64 -113 60 -7 -1 -13 2 -13 8 0 5 -13 8 -30 7
-16 -1 -30 1 -30 4 0 3 -16 7 -37 8 -20 2 -39 5 -43 7 -9 5 -154 18 -217 19
-24 1 -43 5 -43 9 0 5 -5 5 -11 1 -11 -6 -10 20 6 166 13 110 11 129 -16 154
-41 38 -117 56 -239 55 -272 0 -498 -6 -511 -14 -39 -24 -89 -174 -103 -313
-2 -18 -6 -36 -10 -39 -4 -4 -47 -8 -97 -8 -99 -2 -92 -7 -103 75 -7 50 -16
93 -23 110 -3 8 -5 23 -4 33 1 9 -3 17 -9 17 -6 0 -8 4 -5 10 14 22 -54 119
-87 124 -7 1 -17 4 -23 7 -5 4 -44 5 -85 3 -181 -9 -261 -10 -265 -3 -3 4 -17
4 -33 0 -15 -4 -43 -5 -62 -1 -19 4 -46 4 -60 1z"/>
</g>
</svg>
